<svg version="1.2" xmlns="http://www.w3.org/2000/svg" viewBox="0 0 1500 500" width="100%" height="100%">
	<title>Fluffy SQL Logo</title>
	<style>
		.s0 {
			fill: currentColor
		}
	</style>
	<path id="Fluffy SQL" class="s0" aria-label="Fluffy SQL"
		d="m273.2 154.9c-25.3-60-95.4-47.5-108.9 12.4-11.3 49.3-6.1 101.6-5.1 151.7 0.5 23.6 37.2 23.7 36.7 0-0.3-18.6-1-37.2-1.3-55.8 10.6-0.2 21.2-0.2 31.8 0.3 23.6 1.1 23.6-35.7 0-36.8-10.6-0.5-21.1-0.5-31.7-0.3 0.5-14.8 1.2-29.8 4-44.3 1.2-6.5 2.3-14.1 5.5-20 7.8-14.1 26.8-13.5 33.6 2.6 9 21.5 44.6 12.1 35.4-9.8zm10.6-18.3c-2.3 61.4-1.2 122.8-2.1 184.3-0.4 23.6 36.4 23.6 36.7 0 1-61.5-0.1-122.9 2.2-184.3 0.8-23.7-35.9-23.6-36.8 0zm175 29c0.7-23.7-36-23.7-36.8 0-0.7 23-0.1 46.1-2.1 69.1-1.1 12.9-4 64.8-23.1 66.8-32.2 3.3-24.2-116.3-23-135.4 1.5-23.6-35.3-23.6-36.8 0-2.9 45-12.6 174.4 59.8 172.1 70.9-2.2 60.6-126.4 62-172.6zm129.6-10.7c-25.4-60-95.4-47.5-109 12.4-11.2 49.3-6.1 101.6-5 151.7 0.4 23.6 37.2 23.7 36.7 0-0.4-18.6-1.1-37.2-1.4-55.8 10.6-0.2 21.2-0.2 31.9 0.3 23.6 1.1 23.6-35.7 0-36.8-10.6-0.5-21.1-0.5-31.7-0.3 0.4-14.8 1.2-29.8 4-44.3 1.2-6.5 2.2-14.1 5.5-20 7.8-14.1 26.7-13.5 33.5 2.6 9.1 21.5 44.7 12.1 35.5-9.8zm122.9 0c-25.3-60-95.3-47.5-108.9 12.4-11.2 49.3-6.1 101.6-5.1 151.7 0.5 23.6 37.2 23.7 36.8 0-0.4-18.6-1.1-37.2-1.4-55.8 10.6-0.2 21.2-0.2 31.8 0.3 23.7 1.1 23.6-35.7 0-36.8-10.6-0.5-21.1-0.5-31.7-0.3 0.5-14.8 1.2-29.8 4-44.3 1.2-6.5 2.3-14.1 5.5-20 7.9-14.1 26.8-13.5 33.6 2.6 9 21.5 44.6 12.1 35.4-9.8zm143.2 115c0-34.1-0.1-68.2-0.3-102.3-0.1-6.2-2.6-10.8-6.4-13.7-9.8-9.3-31.1-5-31.9 12.9-1 23.2-3 46.4-7.3 69.2-2.7 14.1-10.2 64.2-30.5 65.5-32.9 1.9-24.3-115.3-23-135.4 1.5-23.6-35.2-23.6-36.8 0-2.8 45-12.6 174.3 59.8 172.1 16.6-0.5 29.4-8 39.3-19.6-0.6 15.5-2.7 31-9.3 44.9-14.7 30.4-48.5 29.8-62.3-0.2-9.9-21.5-41.6-2.9-31.8 18.5 29 63.2 109.1 47.9 131-11.8 11.6-31.8 9.5-66.9 9.5-100.1zm190.7-22.7c-11.7-8.5-26-11.3-38.4-18.6-13-7.7-17.1-26.5-7-38.2 10.5-12.1 34.8-12.9 28.9 14.5-4.9 23.1 30.5 32.9 35.5 9.8 5.7-26.6 0.4-53-26.8-64.7-25.7-11-53.5 0.3-69.8 21.7-17.3 22.8-18.2 51.7 1.4 73.3 10.1 11.1 22.5 17.2 36 23.1 12.3 5.3 18.4 4.1 19.4 18 1.5 22.3-23.6 15.2-28.6-1.4-6.8-22.6-42.3-12.9-35.4 9.8 14.3 47.4 82.6 60 102.6 8.9 8.4-21.3 0.3-43.1-17.8-56.2zm152.4-76.6c0 0.7 0 1.3 0 2-20-24.6-51.2-36.3-83.9-14.3-33.4 22.4-43.3 70.7-37.5 108.1 6 38.6 35.4 76.3 78.6 69.3 17.5-2.8 31-13.3 41.2-27.3-0.1 31.7-0.1 63.4-0.5 95.1-0.3 23.7 36.5 23.7 36.8 0 0.9-77.6-0.2-155.3 2.1-232.9 0.7-23.7-36.1-23.6-36.8 0zm-13 67.5c-1.8 15.4-11.6 51.5-30.2 59.7-24 10.5-39-17.6-42.1-36.7-3.5-21.5 0.2-49.2 15-66 6.6-7.6 15.3-12.3 25.6-11 21.7 2.6 27 26.8 30.1 44.6 0.5 2.4 1.3 4.4 2.3 6.1-0.3 1-0.6 2.1-0.7 3.3zm68.3-101.5c-2.3 61.4-1.1 122.8-2.1 184.2-0.3 23.7 36.4 23.7 36.8 0 0.9-61.4-0.2-122.8 2.1-184.2 0.9-23.7-35.9-23.6-36.8 0z" />
</svg>